<svg width="663" height="690" viewBox="0 0 663 690" fill="none" xmlns="http://www.w3.org/2000/svg">
<g clip-path="url(#clip0)">
<path d="M473.981 -35.7978C417.352 -36.1198 366.457 -5.54086 331.5 43.176C296.543 -5.5409 245.648 -36.1197 189.019 -35.7978C82.6826 -35.1932 -2.06516 73.1432 0.0383256 205.639C2.0784 334.143 86.3033 437.532 189.905 437.532C193.924 437.532 197.913 437.378 201.872 437.069C288.206 430.375 374.794 430.375 461.128 437.069C465.085 437.376 469.074 437.53 473.095 437.532C576.697 437.532 660.922 334.143 662.962 205.639C665.065 73.1432 580.317 -35.1932 473.981 -35.7978Z" fill="#F2F2F2"/>
<path d="M438.033 -105C435.193 -104.801 432.453 -103.628 430.122 -101.61C427.79 -99.5928 425.959 -96.8115 424.833 -93.5782C421.533 -83.7043 425.783 -72.106 432.162 -64.9059C438.542 -57.7058 446.737 -53.5903 454.183 -48.1807C464.185 -40.9147 473.172 -30.8283 478.176 -17.8809C483.18 -4.93354 483.713 11.1045 477.83 23.4737C472.371 34.9544 462.443 41.8255 452.975 48.1626" stroke="#3F3D56" stroke-miterlimit="10"/>
<path d="M446.442 14.0185C452.882 14.0185 458.103 10.8804 458.103 7.00927C458.103 3.13816 452.882 0 446.442 0C440.002 0 434.781 3.13816 434.781 7.00927C434.781 10.8804 440.002 14.0185 446.442 14.0185Z" fill="#57B894"/>
<path d="M499.655 124.896C497.04 123.512 494.164 123.057 491.351 123.582C488.538 124.107 485.899 125.591 483.729 127.869C477.227 134.899 476.869 147.626 479.999 157.585C483.128 167.544 488.992 175.737 493.72 184.679C500.07 196.688 504.499 210.666 504.333 225.017C504.166 239.368 498.884 254.028 489.173 261.874C480.159 269.156 468.799 269.851 458.041 270.321" stroke="#3F3D56" stroke-miterlimit="10"/>
<path d="M517.326 136.704C518.716 133.236 515.166 127.553 509.397 124.011C503.627 120.47 497.824 120.41 496.433 123.878C495.043 127.345 498.593 133.028 504.363 136.57C510.132 140.112 515.936 140.171 517.326 136.704Z" fill="#57B894"/>
<path d="M509.1 183.202C510.49 179.735 506.94 174.052 501.171 170.51C495.402 166.968 489.598 166.909 488.208 170.376C486.818 173.844 490.368 179.527 496.137 183.069C501.906 186.61 507.71 186.67 509.1 183.202Z" fill="#57B894"/>
<path d="M487.334 178.124C488.724 174.656 485.174 168.974 479.405 165.432C473.635 161.89 467.832 161.83 466.442 165.298C465.051 168.766 468.601 174.449 474.371 177.99C480.14 181.532 485.944 181.592 487.334 178.124Z" fill="#57B894"/>
<path d="M503.262 231.167C504.653 227.699 501.103 222.017 495.333 218.475C489.564 214.933 483.76 214.873 482.37 218.341C480.98 221.809 484.53 227.491 490.299 231.033C496.069 234.575 501.872 234.635 503.262 231.167Z" fill="#57B894"/>
<path d="M524.155 243.993C525.545 240.525 521.995 234.843 516.226 231.301C510.456 227.759 504.653 227.699 503.262 231.167C501.872 234.635 505.422 240.317 511.192 243.859C516.961 247.401 522.765 247.461 524.155 243.993Z" fill="#57B894"/>
<path d="M198.569 190.999C200.587 188.517 203.123 186.78 205.894 185.982C208.665 185.184 211.561 185.357 214.257 186.482C222.397 190.043 226.528 201.707 226.592 212.392C226.656 223.077 223.652 233.372 221.927 243.842C219.61 257.904 219.665 272.919 224.103 286.179C228.541 299.439 237.825 310.648 249.191 313.5C259.74 316.147 270.505 311.601 280.642 307.12" stroke="#3F3D56" stroke-miterlimit="10"/>
<path d="M197.679 203.999C201.983 198.071 203.586 191.167 201.259 188.58C198.933 185.993 193.557 188.701 189.253 194.63C184.949 200.558 183.346 207.461 185.672 210.048C187.999 212.636 193.375 209.927 197.679 203.999Z" fill="#57B894"/>
<path d="M219.2 243.45C223.504 237.522 225.107 230.618 222.781 228.031C220.454 225.444 215.078 228.152 210.774 234.081C206.47 240.009 204.867 246.912 207.194 249.5C209.52 252.087 214.896 249.378 219.2 243.45Z" fill="#57B894"/>
<path d="M237.912 228.782C242.216 222.854 243.819 215.95 241.493 213.363C239.166 210.776 233.79 213.484 229.486 219.413C225.182 225.341 223.579 232.244 225.905 234.832C228.232 237.419 233.608 234.71 237.912 228.782Z" fill="#57B894"/>
<path d="M238.94 285.355C243.244 279.426 244.847 272.523 242.52 269.936C240.194 267.349 234.818 270.057 230.514 275.985C226.21 281.914 224.607 288.817 226.933 291.404C229.26 293.992 234.636 291.283 238.94 285.355Z" fill="#57B894"/>
<path d="M223.353 306.823C227.657 300.895 229.26 293.992 226.933 291.404C224.607 288.817 219.231 291.526 214.927 297.454C210.623 303.382 209.02 310.286 211.346 312.873C213.673 315.46 219.049 312.752 223.353 306.823Z" fill="#57B894"/>
<path d="M466.752 95.7972L464.919 112.43L453.592 215.062L435.041 383.136L430.397 425.217C430.043 428.429 428.76 431.374 426.787 433.505C424.813 435.637 422.282 436.811 419.662 436.811H295.958C293.342 436.812 290.815 435.642 288.842 433.517C286.869 431.392 285.584 428.455 285.223 425.249L280.499 383.136L261.635 215.062L250.108 112.356L248.255 95.8302C248.041 93.9318 248.159 91.9988 248.6 90.1614C249.041 88.3241 249.796 86.6252 250.812 85.1793C251.829 83.7335 253.085 82.5743 254.494 81.78C255.904 80.9856 257.434 80.5746 258.983 80.5747H456.017C457.564 80.5755 459.092 80.9859 460.5 81.7782C461.907 82.5705 463.162 83.7265 464.178 85.1684C465.195 86.6103 465.951 88.3048 466.395 90.1381C466.839 91.9713 466.96 93.9009 466.752 95.7972Z" fill="#856663"/>
<path d="M443.603 36.0454H272.037C266.053 36.0454 261.202 42.0485 261.202 49.4537V67.1666C261.202 74.5718 266.053 80.5749 272.037 80.5749H443.603C449.587 80.5749 454.438 74.5718 454.438 67.1666V49.4537C454.438 42.0485 449.587 36.0454 443.603 36.0454Z" fill="#2F2E41"/>
<path opacity="0.1" d="M454.438 57.0896V67.1665C454.438 70.7226 453.296 74.133 451.265 76.6475C449.233 79.1621 446.477 80.5748 443.603 80.5748H272.037C269.163 80.5748 266.407 79.1621 264.376 76.6475C262.344 74.133 261.202 70.7226 261.202 67.1665V57.1143C325.469 64.6926 390.173 64.6843 454.438 57.0896Z" fill="black"/>
<path d="M306.179 207.979C322.372 207.979 335.498 191.734 335.498 171.695C335.498 151.657 322.372 135.412 306.179 135.412C289.987 135.412 276.861 151.657 276.861 171.695C276.861 191.734 289.987 207.979 306.179 207.979Z" fill="#2F2E41"/>
<path d="M410.127 207.979C426.319 207.979 439.446 191.734 439.446 171.695C439.446 151.657 426.319 135.412 410.127 135.412C393.935 135.412 380.808 151.657 380.808 171.695C380.808 191.734 393.935 207.979 410.127 207.979Z" fill="#2F2E41"/>
<path d="M304.847 181.591C309.263 181.591 312.843 177.16 312.843 171.695C312.843 166.23 309.263 161.8 304.847 161.8C300.431 161.8 296.851 166.23 296.851 171.695C296.851 177.16 300.431 181.591 304.847 181.591Z" fill="white"/>
<path d="M316.841 156.852C318.681 156.852 320.172 155.006 320.172 152.729C320.172 150.452 318.681 148.606 316.841 148.606C315.001 148.606 313.509 150.452 313.509 152.729C313.509 155.006 315.001 156.852 316.841 156.852Z" fill="white"/>
<path d="M410.127 181.591C414.543 181.591 418.123 177.16 418.123 171.695C418.123 166.23 414.543 161.8 410.127 161.8C405.711 161.8 402.131 166.23 402.131 171.695C402.131 177.16 405.711 181.591 410.127 181.591Z" fill="white"/>
<path d="M422.121 156.852C423.961 156.852 425.453 155.006 425.453 152.729C425.453 150.452 423.961 148.606 422.121 148.606C420.281 148.606 418.789 150.452 418.789 152.729C418.789 155.006 420.281 156.852 422.121 156.852Z" fill="white"/>
<path opacity="0.1" d="M466.136 89.2332H466.137C466.134 89.2231 466.13 89.2135 466.127 89.2035C465.842 88.2805 465.475 87.3994 465.033 86.5762L465.032 86.574C464.901 86.3311 464.763 86.0961 464.62 85.8645C464.573 85.7869 464.524 85.7111 464.475 85.6348C464.059 84.99 463.597 84.3936 463.094 83.8531C462.981 83.7322 462.868 83.613 462.752 83.4977C462.621 83.3687 462.49 83.242 462.354 83.1204C462.185 82.9679 462.01 82.8246 461.833 82.6843C461.693 82.5738 461.553 82.4654 461.41 82.3628C461.187 82.2038 460.96 82.0543 460.729 81.9142C460.618 81.8479 460.506 81.7862 460.393 81.7244C460.172 81.6027 459.946 81.4904 459.717 81.3874C459.625 81.3458 459.534 81.3002 459.44 81.2617C459.123 81.1306 458.799 81.0177 458.468 80.9228C458.388 80.8997 458.305 80.8833 458.223 80.8623C457.953 80.7931 457.679 80.7365 457.401 80.6927C457.301 80.6769 457.201 80.6608 457.099 80.6484C456.743 80.6048 456.384 80.5748 456.018 80.5748L456.017 80.5747H258.983C257.436 80.5811 255.908 80.9963 254.501 81.7925C253.095 82.5887 251.841 83.7475 250.826 85.1915C249.81 86.6354 249.055 88.3312 248.612 90.1653C248.168 91.9994 248.047 93.9296 248.255 95.8267L248.567 98.6148L250.108 112.356L250.11 112.356L261.636 215.062H261.635L276.766 349.879L285.225 425.248C285.585 428.453 286.869 431.39 288.842 433.515C290.814 435.64 293.341 436.811 295.956 436.811H301.826C301.536 435.874 301.331 434.9 301.217 433.906L295.519 383.136H435.041L453.592 215.062H276.656L265.314 114C331.759 120.668 398.548 120.143 464.919 112.43L466.752 95.7972C466.996 93.5799 466.784 91.3223 466.136 89.2332Z" fill="black"/>
<path d="M482.251 102.84C399.543 114.012 316.097 114.012 233.389 102.84C230.516 102.84 227.76 101.427 225.728 98.9126C223.696 96.3982 222.555 92.988 222.555 89.4321V71.7176C222.555 68.1617 223.696 64.7514 225.728 62.237C227.76 59.7226 230.516 58.3101 233.389 58.3101C316.032 70.885 399.608 70.885 482.251 58.3101C485.125 58.3101 487.88 59.7226 489.912 62.237C491.944 64.7514 493.085 68.1617 493.085 71.7176V89.4321C493.085 92.988 491.944 96.3982 489.912 98.9126C487.88 101.427 485.125 102.84 482.251 102.84Z" fill="#2F2E41"/>
<path d="M440.135 377.026H273.562C272.067 377.026 270.62 376.366 269.483 375.164C268.346 373.962 267.592 372.298 267.358 370.47L249.362 230.166C249.22 229.056 249.274 227.92 249.52 226.839C249.766 225.757 250.199 224.754 250.789 223.899C251.379 223.044 252.111 222.358 252.936 221.887C253.761 221.416 254.658 221.173 255.566 221.173H459.33C460.244 221.173 461.147 221.419 461.975 221.895C462.804 222.372 463.539 223.066 464.129 223.929C464.718 224.793 465.149 225.806 465.39 226.896C465.631 227.987 465.676 229.13 465.524 230.245L446.329 370.549C446.081 372.361 445.323 374.005 444.189 375.19C443.055 376.375 441.619 377.026 440.135 377.026Z" fill="#2F2E41"/>
<path d="M421.181 277.017C421.966 277.194 422.698 277.631 423.3 278.28C423.902 278.929 424.351 279.768 424.6 280.706C424.849 281.645 424.889 282.649 424.716 283.614C424.542 284.578 424.162 285.467 423.615 286.186C413.046 300.128 387.421 329.198 357.487 329.198C327.553 329.198 301.928 300.128 291.359 286.186C290.812 285.467 290.431 284.578 290.258 283.614C290.085 282.649 290.125 281.645 290.374 280.706C290.623 279.768 291.072 278.929 291.674 278.28C292.276 277.631 293.008 277.194 293.793 277.017C335.902 267.428 379.072 267.428 421.181 277.017H421.181Z" fill="#856663"/>
<path d="M390.802 285.711C391.614 285.871 392.373 286.306 392.996 286.969C393.62 287.632 394.082 288.495 394.332 289.464C394.582 290.433 394.61 291.468 394.413 292.455C394.216 293.442 393.801 294.342 393.215 295.055C386.058 303.691 372.738 316.713 357.487 316.713C342.236 316.713 328.916 303.691 321.759 295.055C321.173 294.342 320.758 293.442 320.561 292.455C320.364 291.468 320.392 290.433 320.642 289.464C320.892 288.495 321.354 287.632 321.978 286.969C322.601 286.306 323.36 285.871 324.172 285.711C346.231 281.177 368.743 281.177 390.802 285.711Z" fill="white"/>
<path d="M84.2913 437.223H544.726" stroke="#3F3D56" stroke-miterlimit="10"/>
<path d="M122.373 360.9V384.097L131.999 397.89C131.999 397.89 136.052 396.009 136.052 383.47L137.571 365.289L122.373 360.9Z" fill="#A0616A"/>
<path d="M131.999 384.097C131.999 384.097 116.294 370.931 115.787 366.543C115.281 362.154 92.9903 342.092 96.5365 354.631C100.083 367.17 111.228 372.812 111.228 372.812C111.228 372.812 119.84 401.652 127.439 401.025C135.038 400.398 135.038 388.486 131.999 384.097Z" fill="#A0616A"/>
<path d="M141.118 525.161L142.637 536.446L134.531 533.938V525.161H141.118Z" fill="#3F3D56"/>
<path d="M139.598 531.43C139.598 531.43 130.229 524.562 129.848 527.683C129.466 530.803 125.413 542.715 123.386 543.969C121.36 545.223 118.827 559.016 123.386 558.389C126.918 557.904 139.87 549.52 145.531 545.764C146.228 545.299 146.755 544.521 147.002 543.591C147.25 542.66 147.199 541.647 146.862 540.761C146.53 540.001 146.301 539.179 146.184 538.327C146.184 537.073 139.598 531.43 139.598 531.43Z" fill="#2F2E41"/>
<path d="M144.157 404.16C144.157 404.16 107.175 425.476 110.721 441.777C114.268 458.077 127.439 527.042 127.439 527.042C127.439 527.042 142.131 531.43 143.144 527.042C144.157 522.653 133.519 454.316 134.532 451.808C135.545 449.3 154.289 432.999 154.289 432.999L192.791 412.937L176.58 394.128L144.157 404.16Z" fill="#2F2E41"/>
<path d="M116.294 528.922L111.734 543.343L119.84 547.731L124.906 536.445L116.294 528.922Z" fill="#3F3D56"/>
<path d="M143.651 301.34C143.651 301.34 148.21 308.863 144.664 312.625C141.118 316.387 143.651 330.18 143.651 330.18L148.21 345.853L166.448 341.465V315.76L165.435 303.221C165.435 303.221 156.316 292.563 155.303 284.412C154.289 276.262 143.651 301.34 143.651 301.34Z" fill="#A0616A"/>
<path opacity="0.1" d="M143.651 301.34C143.651 301.34 148.21 308.863 144.664 312.625C141.118 316.387 143.651 330.18 143.651 330.18L148.21 345.853L166.448 341.465V315.76L165.435 303.221C165.435 303.221 156.316 292.563 155.303 284.412C154.289 276.262 143.651 301.34 143.651 301.34Z" fill="black"/>
<path d="M174.047 399.144C174.047 399.144 150.237 431.745 150.237 432.999C150.237 434.253 137.571 459.958 137.571 459.958L112.748 528.296C112.748 528.296 122.373 544.596 126.426 543.342C130.479 542.089 159.355 469.362 159.355 469.362C159.355 469.362 164.421 453.062 178.1 449.3C191.778 445.538 202.417 432.372 197.351 417.326C192.285 402.279 174.047 399.144 174.047 399.144Z" fill="#2F2E41"/>
<path d="M143.651 305.729C152.604 305.729 159.862 296.746 159.862 285.666C159.862 274.586 152.604 265.604 143.651 265.604C134.697 265.604 127.439 274.586 127.439 285.666C127.439 296.746 134.697 305.729 143.651 305.729Z" fill="#A0616A"/>
<path d="M144.157 318.268C144.157 318.268 146.184 332.687 148.21 333.941C150.237 335.195 151.756 339.584 156.316 333.314C160.875 327.045 164.928 314.506 164.928 314.506L180.633 338.33L182.153 404.16C182.153 404.16 164.421 398.517 158.849 404.16C153.276 409.802 141.118 409.175 141.118 409.175L143.651 396.636L141.624 375.32L142.131 355.885L142.637 342.092L144.157 318.268Z" fill="#F2F2F2"/>
<path d="M145.942 307.715C145.942 307.715 139.091 311.998 138.585 314.506C138.078 317.014 128.959 322.029 128.959 322.029C128.959 322.029 125.413 326.418 125.413 328.926C125.413 331.434 137.571 360.273 137.571 360.273C137.571 360.273 140.104 379.709 139.091 383.47C138.078 387.232 141.118 401.652 141.118 401.652L135.038 410.429H140.611C140.611 410.429 146.69 406.667 146.69 404.787C146.69 402.906 145.677 389.74 145.17 384.097C144.664 378.455 144.664 358.392 145.677 351.496C146.69 344.599 146.184 326.418 146.184 322.029C146.184 317.641 145.942 307.715 145.942 307.715Z" fill="#3F3D56"/>
<path d="M161.635 298.195C161.635 298.195 163.915 298.832 170.501 301.34C177.086 303.848 187.219 307.609 190.765 312.625C193.254 316.334 195.459 320.322 197.351 324.537L195.324 369.677C195.324 369.677 199.377 379.082 198.87 384.097C198.364 389.113 194.311 389.74 197.351 400.398C200.39 411.056 206.469 420.46 200.897 421.714C195.324 422.968 180.633 418.579 174.047 421.087C167.461 423.595 159.862 411.683 159.862 411.683C159.862 411.683 169.994 412.937 168.474 407.921C166.954 402.906 150.236 346.48 153.783 333.941C157.329 321.402 161.635 298.195 161.635 298.195Z" fill="#3F3D56"/>
<path d="M127.946 325.791L125.413 328.299C125.413 328.299 118.321 359.646 120.347 362.781C122.373 365.916 138.585 372.812 139.598 368.424C140.611 364.035 127.946 325.791 127.946 325.791Z" fill="#3F3D56"/>
<path d="M202.923 347.734C202.923 347.734 210.522 374.693 210.522 382.216C210.522 389.74 209.509 433.626 209.509 433.626C209.509 433.626 209.003 452.435 198.364 444.911C187.725 437.388 198.364 432.372 198.364 432.372C198.364 432.372 197.857 382.843 193.804 375.947C189.752 369.05 188.232 359.019 188.232 359.019L202.923 347.734Z" fill="#A0616A"/>
<path d="M119.84 542.715C119.84 542.715 112.241 537.7 110.721 541.461C109.202 545.223 101.096 565.913 102.109 568.42C103.122 570.928 108.695 580.959 115.281 578.452C121.867 575.944 122.373 562.778 122.373 562.778L122.88 547.731L119.84 542.715Z" fill="#2F2E41"/>
<path d="M140.476 280.82C141.593 281.471 142.918 281.859 143.619 283.116C144.139 284.047 144.191 285.257 144.571 286.287C144.985 287.306 145.697 288.092 146.563 288.484C147.429 288.876 148.384 288.845 149.232 288.396C149.439 287.147 150.026 286.045 150.871 285.316C151.298 284.968 151.803 284.799 152.314 284.834C152.824 284.869 153.312 285.105 153.705 285.508C154.749 286.74 154.38 288.889 154.867 290.569C155.324 291.751 155.954 292.819 156.724 293.719C157.832 295.303 158.716 297.16 160.051 298.448C161.386 299.736 163.411 300.294 164.738 298.992C165.853 297.898 166.085 295.878 165.814 294.149C165.543 292.419 164.871 290.826 164.492 289.128C163.261 283.61 165.224 277.719 164.617 272.043C163.838 264.772 158.844 259.028 153.27 256.535C150.95 255.366 148.41 255.033 145.944 255.574C143.395 256.279 141.217 258.287 138.775 259.436C136.164 260.664 133.325 260.879 130.593 261.597C127.86 262.315 125.048 263.704 123.463 266.55C122.357 268.535 121.977 271 121.06 273.128C120.005 275.557 118.296 277.451 116.23 278.483L119.118 278.279C118.634 279.875 117.845 281.301 116.817 282.436C118.171 282.778 119.579 282.548 120.816 281.782C120.793 282.517 120.649 283.238 120.393 283.901C120.137 284.565 119.773 285.156 119.325 285.638C121.547 285.555 123.891 285.429 125.769 283.955C126.689 283.234 127.439 282.228 128.305 281.41C130.15 279.667 132.44 278.839 134.671 278.046C135.843 277.63 137.253 277.051 138.313 277.984C139.196 278.761 139.335 280.155 140.476 280.82Z" fill="#2F2E41"/>
<path d="M189.752 317.014L197.351 324.537L207.483 353.377C207.483 353.377 193.298 367.17 189.752 365.289C186.205 363.408 180.126 330.18 180.126 330.18L189.752 317.014Z" fill="#3F3D56"/>
<path d="M114.216 346.14L114.089 347.293L113.304 354.404L112.019 366.049L111.697 368.965C111.673 369.188 111.584 369.392 111.447 369.539C111.31 369.687 111.135 369.768 110.953 369.768H102.382C102.201 369.768 102.026 369.687 101.889 369.54C101.753 369.393 101.664 369.189 101.639 368.967L101.311 366.049L100.004 354.404L99.2055 347.288L99.0771 346.143C99.0623 346.011 99.0705 345.877 99.101 345.75C99.1316 345.623 99.1839 345.505 99.2543 345.405C99.3248 345.305 99.4117 345.224 99.5094 345.169C99.6071 345.114 99.7131 345.086 99.8204 345.086H113.472C113.58 345.086 113.685 345.114 113.783 345.169C113.881 345.224 113.967 345.304 114.038 345.404C114.108 345.504 114.161 345.621 114.191 345.748C114.222 345.875 114.231 346.009 114.216 346.14Z" fill="#856663"/>
<path d="M112.612 342H100.725C100.31 342 99.9742 342.416 99.9742 342.929V344.157C99.9742 344.67 100.31 345.086 100.725 345.086H112.612C113.027 345.086 113.363 344.67 113.363 344.157V342.929C113.363 342.416 113.027 342 112.612 342Z" fill="#2F2E41"/>
<path d="M115.29 346.629C109.56 347.403 103.778 347.403 98.0472 346.629C97.9486 346.629 97.851 346.605 97.7599 346.558C97.6688 346.511 97.5861 346.443 97.5164 346.356C97.4467 346.27 97.3914 346.168 97.3536 346.055C97.3159 345.942 97.2965 345.822 97.2965 345.7V344.472C97.2965 344.226 97.3756 343.99 97.5164 343.815C97.6571 343.641 97.8481 343.543 98.0472 343.543C103.773 344.415 109.564 344.415 115.29 343.543C115.489 343.543 115.68 343.641 115.821 343.815C115.962 343.99 116.041 344.226 116.041 344.472V345.7C116.041 345.946 115.962 346.182 115.821 346.356C115.68 346.531 115.489 346.629 115.29 346.629Z" fill="#2F2E41"/>
<path d="M112.372 365.626H100.831C100.727 365.626 100.627 365.58 100.548 365.497C100.469 365.414 100.417 365.299 100.401 365.172L99.1539 355.45C99.1441 355.374 99.1478 355.295 99.1649 355.22C99.1819 355.145 99.2119 355.076 99.2528 355.016C99.2937 354.957 99.3444 354.909 99.4016 354.877C99.4587 354.844 99.5209 354.827 99.5838 354.827H113.702C113.765 354.827 113.828 354.844 113.885 354.877C113.943 354.91 113.994 354.959 114.034 355.018C114.075 355.078 114.105 355.148 114.122 355.224C114.139 355.3 114.142 355.379 114.131 355.456L112.801 365.177C112.784 365.303 112.731 365.417 112.653 365.499C112.574 365.581 112.475 365.626 112.372 365.626Z" fill="#2F2E41"/>
</g>
<defs>
<clipPath id="clip0">
<rect width="663" height="690" fill="white"/>
</clipPath>
</defs>
</svg>
